# xmcd
#
# Track frame offsets: 
#        150
#        20552
#        39432
#        59175
#        85167
#        108645
#        126330
#        146497
#        165995
#
# Disc length: 2530 seconds
#
# Revision: 3
# Processed by: cddbd v1.5.2PL0 Copyright (c) Steve Scherf et al.
# Submitted via: ExactAudioCopy v1.0b3
#
DISCID=7b09e009
DTITLE=Cheryl Gunn - Vanity of Venus
DYEAR=2000
DGENRE=New Age
TTITLE0=Valhalla
TTITLE1=Spellbound
TTITLE2=Tides Turned
TTITLE3=Vanity of Venus
TTITLE4=Wishing Well
TTITLE5=Frejya
TTITLE6=Dark of the Moon
TTITLE7=Red Jasper
TTITLE8=Elysian Fields
EXTD=YEAR: 2000
EXTT0=
EXTT1=
EXTT2=
EXTT3=
EXTT4=
EXTT5=
EXTT6=
EXTT7=
EXTT8=
PLAYORDER=
